HIERARCHY
ROOT Character1_Hips
{
  OFFSET 90.7871 96.1215 -126.823
  CHANNELS 6 Xposition Yposition Zposition Zrotation Xrotation Yrotation
  JOINT Character1_Spine
  {
    OFFSET 0 8.754 -1.339
    CHANNELS 3 Zrotation Xrotation Yrotation
    JOINT Character1_Spine1
    {
      OFFSET 0 10.855 -0.645
      CHANNELS 3 Zrotation Xrotation Yrotation
      JOINT Character1_LeftShoulder
      {
        OFFSET 1.467 27.745 1.178
        CHANNELS 3 Zrotation Xrotation Yrotation
        JOINT Character1_LeftArm
        {
          OFFSET 18.486 -1.858 0.275
          CHANNELS 3 Zrotation Xrotation Yrotation
          JOINT Character1_LeftForeArm
          {
            OFFSET 32.391 -1.079 3.409
            CHANNELS 3 Zrotation Xrotation Yrotation
            JOINT Character1_LeftHand
            {
              OFFSET 28.678 -2.281 2.112
              CHANNELS 3 Zrotation Xrotation Yrotation
              End Site
              {
                OFFSET -0.000241878 -0.00028536 -9.11487e-005
              }
            }
            JOINT L_Radius
            {
              OFFSET -8.94447e-005 -0.392541 -0.0893675
              CHANNELS 3 Zrotation Xrotation Yrotation
              End Site
              {
                OFFSET 0 0 0
              }
            }
          }
          JOINT L_Humerus
          {
            OFFSET 42.9881 15.7281 -23.1008
            CHANNELS 3 Zrotation Xrotation Yrotation
            End Site
            {
              OFFSET 0 0 0
            }
          }
        }
        JOINT L_Shoulder
        {
          OFFSET 3.24498e-005 -0.000608592 -0.000527677
          CHANNELS 3 Zrotation Xrotation Yrotation
          End Site
          {
            OFFSET 0 0 0
          }
        }
      }
      JOINT Character1_RightShoulder
      {
        OFFSET -1.467 27.745 1.178
        CHANNELS 3 Zrotation Xrotation Yrotation
        JOINT Character1_RightArm
        {
          OFFSET -18.486 -1.858 0.275
          CHANNELS 3 Zrotation Xrotation Yrotation
          JOINT Character1_RightForeArm
          {
            OFFSET -32.391 -1.079 3.409
            CHANNELS 3 Zrotation Xrotation Yrotation
            JOINT Character1_RightHand
            {
              OFFSET -28.678 -2.281 2.112
              CHANNELS 3 Zrotation Xrotation Yrotation
              End Site
              {
                OFFSET 0.000589556 -0.000254961 0.000258925
              }
            }
            JOINT R_Radius
            {
              OFFSET 0.000437123 -0.392512 -0.0890171
              CHANNELS 3 Zrotation Xrotation Yrotation
              End Site
              {
                OFFSET 0 0 0
              }
            }
          }
          JOINT R_Humerus
          {
            OFFSET -42.9874 15.7281 -23.1005
            CHANNELS 3 Zrotation Xrotation Yrotation
            End Site
            {
              OFFSET 0 0 0
            }
          }
        }
        JOINT R_Shoulder
        {
          OFFSET -3.24498e-005 -0.000608592 -0.000527677
          CHANNELS 3 Zrotation Xrotation Yrotation
          End Site
          {
            OFFSET 0 0 0
          }
        }
      }
      JOINT Character1_Neck
      {
        OFFSET 0 30.836 0.626
        CHANNELS 3 Zrotation Xrotation Yrotation
        JOINT Character1_Head
        {
          OFFSET 0 8.074 3.498
          CHANNELS 3 Zrotation Xrotation Yrotation
          End Site
          {
            OFFSET 0 -0.00153379 1.54668e-005
          }
        }
        JOINT Neck
        {
          OFFSET -1.081 0.0895931 1.11904
          CHANNELS 3 Zrotation Xrotation Yrotation
          End Site
          {
            OFFSET 0 0 0
          }
        }
      }
      JOINT Torso
      {
        OFFSET 0 -0.000828813 -0.000380861
        CHANNELS 3 Zrotation Xrotation Yrotation
        End Site
        {
          OFFSET 0 0 0
        }
      }
    }
    JOINT Spine
    {
      OFFSET 0.000587497 -0.0991208 -0.558053
      CHANNELS 3 Zrotation Xrotation Yrotation
      End Site
      {
        OFFSET 0 0 0
      }
    }
  }
  JOINT Character1_RightUpLeg
  {
    OFFSET -9.035 -4.63425 1.845
    CHANNELS 3 Zrotation Xrotation Yrotation
    JOINT Character1_RightLeg
    {
      OFFSET -0.919521 -40.345 1.155
      CHANNELS 3 Zrotation Xrotation Yrotation
      JOINT Character1_RightFoot
      {
        OFFSET 1.95452 -45.2655 -4.18888
        CHANNELS 3 Zrotation Xrotation Yrotation
        JOINT Character1_RightToeBase
        {
          OFFSET 1.87056 -6.69517 14.7145
          CHANNELS 3 Zrotation Xrotation Yrotation
          End Site
          {
            OFFSET 0 0 0
          }
        }
        JOINT R_Foot
        {
          OFFSET 8 -7.75529 4.18888
          CHANNELS 3 Zrotation Xrotation Yrotation
          End Site
          {
            OFFSET 0 0 0
          }
        }
      }
      JOINT R_Tibia
      {
        OFFSET 0 0 0
        CHANNELS 3 Zrotation Xrotation Yrotation
        End Site
        {
          OFFSET 0 0 0
        }
      }
    }
    JOINT R_Femur
    {
      OFFSET 0 0 0
      CHANNELS 3 Zrotation Xrotation Yrotation
      End Site
      {
        OFFSET 0 0 0
      }
    }
  }
  JOINT Character1_LeftUpLeg
  {
    OFFSET 9.035 -4.63425 1.845
    CHANNELS 3 Zrotation Xrotation Yrotation
    JOINT Character1_LeftLeg
    {
      OFFSET 0.919521 -40.345 1.155
      CHANNELS 3 Zrotation Xrotation Yrotation
      JOINT Character1_LeftFoot
      {
        OFFSET -1.95452 -45.2655 -4.18888
        CHANNELS 3 Zrotation Xrotation Yrotation
        JOINT Character1_LeftToeBase
        {
          OFFSET -1.87056 -6.69517 14.7145
          CHANNELS 3 Zrotation Xrotation Yrotation
          End Site
          {
            OFFSET 0 0 0
          }
        }
        JOINT L_Foot
        {
          OFFSET -8 -7.75529 4.18888
          CHANNELS 3 Zrotation Xrotation Yrotation
          End Site
          {
            OFFSET 0 0 0
          }
        }
      }
      JOINT L_Tibia
      {
        OFFSET 0 0 0
        CHANNELS 3 Zrotation Xrotation Yrotation
        End Site
        {
          OFFSET 0 0 0
        }
      }
    }
    JOINT L_Femur
    {
      OFFSET 0 0 0
      CHANNELS 3 Zrotation Xrotation Yrotation
      End Site
      {
        OFFSET 0 0 0
      }
    }
  }
  JOINT Pelvis
  {
    OFFSET 0 0 0
    CHANNELS 3 Zrotation Xrotation Yrotation
    End Site
    {
      OFFSET 0 0 0
    }
  }
}
MOTION
Frames:	10
Frame Time:	0.00833333
326.774 91.1568 -132.724 12.2852 10.8217 -36.3965 -7.95139e-016 1.59028e-015 6.36111e-015 -11.2362 18.3966 20.4474 -3.08876 3.09739 -3.80726 -67.2324 12.1568 5.10746 -4.38688e-005 1.30692e-005 -50.7092 12.8115 -7.05783 -1.79895 1.08455e-015 20 -8.46169e-016 83 -1.90833e-014 -85 -1.59028e-015 3.18055e-015 1.59028e-015 -9.75339 -4.95393 13.5917 63.8658 15.5038 5.15173 4.36108e-005 4.48806e-005 79.7096 -14.8967 7.6444 8.05975 1.15763e-015 20 -3.38468e-015 -83 3.18055e-015 85 -8.94531e-016 -6.36111e-015 -0 1.59028e-015 -6.36111e-015 3.18055e-015 -8.08604 -18.1852 13.0541 -10.5504 -10.3967 4.12178 1.59028e-015 -6.36111e-015 3.18055e-015 -2.94729 6.54948 6.31114 14.1903 -16.9548 -7.84496 -0.306544 28.0456 -0.0907412 29.8994 32.4638 0.220495 129.669 32.5555 131.121 1.59028e-015 0 -3.18055e-015 -2.38542e-015 -3.97569e-015 -3.18055e-015 1.59028e-015 0 -6.36111e-015 13.6001 -47.5672 44.3164 -0.101226 46.1206 -0.587315 -14.515 8.11605 -12.2979 9.73762 -35.7109 1.90686 -7.95139e-016 3.18055e-015 6.36111e-015 1.09332e-015 1.59028e-015 -0 5.96354e-016 -6.36111e-015 -1.59028e-015 -7.95139e-016 1.59028e-015 6.36111e-015 
325.24 90.9603 -132.6 11.7274 10.8093 -36.1301 -1.59028e-015 -3.18055e-015 9.54166e-015 -11.0305 18.864 19.7087 -3.21688 2.89791 -3.94125 -66.7556 12.0808 4.43733 -4.38103e-005 1.29973e-005 -50.9664 12.7671 -6.65432 -1.97812 1.37395e-015 20 -1.69234e-015 83 -6.36111e-015 -85 0 6.36111e-015 -0 -9.5569 -4.7996 13.5405 64.2747 16.0933 4.82963 4.47218e-005 5.06192e-005 78.3765 -14.1415 7.76422 7.8264 -1.15763e-015 20 3.38468e-015 -83 0 85 1.49089e-016 9.54166e-015 -4.96962e-016 -3.18055e-015 1.27222e-014 1.59028e-015 -7.84163 -18.3333 13.7836 -10.4539 -10.5195 4.23051 -3.18055e-015 1.27222e-014 1.59028e-015 -2.88129 6.67024 6.06769 13.667 -18.2302 -8.33794 -0.264397 31.2399 -0.104938 29.4269 31.6215 0.0875532 126.387 28.4802 135.072 4.77083e-015 0 3.18055e-015 -1.59028e-015 -3.97569e-015 -6.36111e-015 -0 -1.59028e-015 -0 13.1683 -46.9742 43.0217 -0.0842048 46.5335 -0.392477 -11.3035 5.01312 -12.3324 10.0395 -24.4898 1.71782 -7.95139e-015 -3.18055e-015 -0 9.93923e-017 1.59028e-015 -3.97569e-016 -1.78906e-015 0 3.97569e-016 -1.59028e-015 -3.18055e-015 9.54166e-015 
323.701 90.7333 -132.47 11.1695 10.7923 -35.8611 7.95139e-016 3.18055e-015 -3.18055e-015 -10.8199 19.3269 18.9651 -3.34602 2.69857 -4.07515 -66.281 12.0029 3.76763 -4.37521e-005 1.29252e-005 -51.2237 12.7256 -6.25135 -2.15754 2.96423e-015 20 -1.69234e-015 83 6.36111e-015 -85 0 3.18055e-015 -0 -9.36014 -4.64509 13.4896 64.6905 16.6828 4.50597 4.5966e-005 5.63302e-005 77.0435 -13.386 7.88438 7.59114 1.15763e-015 20 -3.38468e-015 -83 0 85 6.21202e-017 -3.18055e-015 3.72721e-016 -1.59028e-015 6.36111e-015 -0 -7.59712 -18.4803 14.5141 -10.3653 -10.6298 4.34329 -1.59028e-015 6.36111e-015 -0 -2.80965 6.78426 5.82892 13.1309 -19.5791 -8.83459 -0.213232 34.5817 -0.114864 28.9462 30.7074 -0.0283735 124.603 23.2312 138.13 3.18055e-015 4.77083e-015 -3.18055e-015 -4.77083e-015 -3.18055e-015 6.36111e-015 -1.59028e-015 -1.59028e-015 -0 12.7547 -46.3848 41.7443 -0.0731677 46.9542 -0.251608 -8.34806 2.22117 -11.9788 9.70473 -18.1002 1.48433 -7.95139e-016 -3.18055e-015 1.59028e-015 -4.96962e-016 -3.18055e-015 -3.97569e-016 1.19271e-015 6.36111e-015 -3.97569e-016 7.95139e-016 3.18055e-015 -3.18055e-015 
322.158 90.4745 -132.335 10.6114 10.7707 -35.5894 0 1.59028e-015 -0 -10.6046 19.7854 18.2166 -3.47608 2.49921 -4.2091 -65.8085 11.9232 3.09833 -4.36943e-005 1.28529e-005 -51.4809 12.6867 -5.84896 -2.33727 1.59028e-015 20 -0 83 0 -85 -3.18055e-015 6.36111e-015 -1.59028e-015 -9.16304 -4.49056 13.4387 65.1132 17.272 4.18075 4.73427e-005 6.20111e-005 75.7105 -12.6303 8.00481 7.35398 1.15763e-015 20 -3.38468e-015 -83 9.54166e-015 85 -2.48481e-016 -3.18055e-015 4.96962e-017 0 0 -0 -7.35229 -18.627 15.2454 -10.2596 -10.7651 4.44829 0 0 -0 -2.74624 6.91173 5.58051 12.5845 -20.9883 -9.33558 -0.156963 38.0449 -0.12152 28.4639 29.7328 -0.135037 122.567 7.89186 144.921 3.18055e-015 0 6.36111e-015 3.18055e-015 -1.59028e-015 -3.18055e-015 -1.59028e-015 0 -0 12.1836 -45.7989 40.4061 -0.0690738 47.4463 -0.148258 -4.53576 -1.33886 -11.3767 7.57549 -11.3774 1.02473 2.38542e-015 1.59028e-015 -1.59028e-015 7.95139e-016 3.18055e-015 -1.59028e-015 -1.32417e-031 9.54166e-015 7.95139e-016 0 1.59028e-015 -0 
320.61 90.1835 -132.196 10.0533 10.7445 -35.3153 -8.82781e-032 1.59028e-015 3.18055e-015 -10.3843 20.2392 17.463 -3.60713 2.29995 -4.34303 -65.338 11.8416 2.4294 -4.36367e-005 1.27803e-005 -51.7381 12.6506 -5.44712 -2.51726 -2.16909e-015 20 1.69234e-015 83 6.36111e-015 -85 2.64834e-031 -9.54166e-015 1.59028e-015 -8.96564 -4.33593 13.388 65.543 17.8611 3.85375 4.88512e-005 6.76582e-005 74.3774 -11.8743 8.12554 7.11489 2.02293e-015 20 3.38468e-015 -83 3.18055e-015 85 -4.96962e-016 -9.54166e-015 1.98785e-016 -8.82781e-032 -3.18055e-015 -1.59028e-015 -7.10729 -18.7731 15.9776 -10.1117 -10.9628 4.53371 -8.82781e-032 -3.18055e-015 -1.59028e-015 -2.70445 7.07288 5.3081 12.0293 -22.4467 -9.84187 -0.097943 41.6074 -0.125877 27.9851 28.7076 -0.238488 122.457 -6.14126 146.613 3.18055e-015 3.18055e-015 -1.27222e-014 -1.59028e-015 -1.59028e-015 6.36111e-015 -3.18055e-015 0 -3.18055e-015 11.4047 -45.1557 38.9719 -0.0603677 47.8685 -0.0379521 0.151481 -5.48678 -10.3354 3.49411 -7.78574 0.374399 -3.97569e-016 0 6.36111e-015 3.18055e-015 0 7.95139e-016 1.59028e-015 -3.18055e-015 -7.95139e-016 -8.82781e-032 1.59028e-015 3.18055e-015 
319.1 89.8173 -132.125 9.66147 10.4967 -34.8866 -8.82781e-032 1.59028e-015 3.18055e-015 -10.3734 21.0205 16.5394 -3.7834 2.07229 -4.59343 -64.54 11.8397 1.43271 -4.36022e-005 1.27364e-005 -51.8931 12.4458 -5.0362 -2.72843 -1.59028e-015 20 -0 83 -1.27222e-014 -85 4.77083e-015 0 -0 -8.58517 -4.07114 13.3429 65.8896 17.888 3.57975 5.10692e-005 7.51398e-005 72.5977 -11.3668 8.1339 6.87617 7.51874e-015 20 -3.38468e-015 -83 0 85 5.96354e-016 0 -1.98785e-016 3.18055e-015 -6.36111e-015 1.59028e-015 -6.79391 -19.0643 16.6811 -9.9193 -11.2496 4.5964 3.18055e-015 -6.36111e-015 1.59028e-015 -2.68866 7.2806 5.00082 10.7492 -24.4407 -10.242 -0.0300974 45.7251 -0.117675 26.4907 26.9885 -0.88929 129.962 -39.5004 161.322 8.82781e-032 -1.59028e-015 3.18055e-015 1.59028e-015 -3.18055e-015 -0 -1.59028e-015 0 -3.18055e-015 11.4785 -44.6722 37.4062 -0.0536968 48.7368 0.00280719 0.225529 -7.71258 -9.16275 3.19245 -6.17132 0.252034 1.59028e-015 1.59028e-015 -0 -3.97569e-016 -3.18055e-015 -1.59028e-015 -3.18055e-015 -3.18055e-015 -0 -8.82781e-032 1.59028e-015 3.18055e-015 
317.588 89.4482 -132.055 9.27386 10.2441 -34.459 -7.95139e-016 0 -0 -10.3539 21.7961 15.6069 -3.96162 1.84476 -4.84383 -63.7425 11.8342 0.435941 -4.35678e-005 1.26924e-005 -52.0481 12.2439 -4.62585 -2.93971 1.46164e-016 20 -5.07701e-015 83 3.18055e-015 -85 -4.77083e-015 3.18055e-015 -0 -8.20416 -3.80624 13.2981 66.2364 17.9144 3.30567 5.35183e-005 8.25489e-005 70.8181 -10.8596 8.14209 6.63674 -4.63051e-015 20 1.35387e-014 -83 -3.18055e-015 85 6.62086e-032 9.54166e-015 -3.97569e-016 3.18055e-015 -9.54166e-015 6.36111e-015 -6.48091 -19.3557 17.3858 -9.69434 -11.5999 4.64278 3.18055e-015 -9.54166e-015 6.36111e-015 -2.69018 7.52161 4.66854 9.46902 -26.4249 -10.6505 0.0335498 49.8 -0.117013 25.0431 25.3081 -1.63056 153.103 -70.9452 -174.874 3.18055e-015 0 3.18055e-015 -3.18055e-015 0 -6.36111e-015 -1.59028e-015 3.18055e-015 -0 11.5526 -44.1785 35.8447 -0.0455925 49.5956 0.0424178 0.299182 -9.93856 -7.98443 3.2991 -4.8001 0.178893 0 0 -0 7.95139e-016 0 -2.38542e-015 2.38542e-015 3.18055e-015 -7.95139e-016 -7.95139e-016 0 -0 
316.075 89.0761 -131.988 8.89047 9.98668 -34.0326 3.97569e-015 -3.18055e-015 -0 -10.3259 22.5661 14.6655 -4.1418 1.61737 -5.09422 -62.9454 11.8249 -0.560806 -4.35335e-005 1.26483e-005 -52.2031 12.0448 -4.21608 -3.15126 -5.78814e-016 20 1.69234e-015 83 1.59028e-014 -85 5.29669e-031 9.54166e-015 -3.18055e-015 -7.82263 -3.54117 13.2536 66.5837 17.9406 3.03145 5.61964e-005 8.98783e-005 69.0384 -10.3528 8.15012 6.39657 3.90553e-015 20 -6.76935e-015 -83 -3.18055e-015 85 1.19271e-015 -9.54166e-015 -0 -1.59028e-015 0 -0 -6.16834 -19.6471 18.0917 -9.433 -11.9732 4.67538 -1.59028e-015 0 -0 -2.70288 7.7769 4.32805 8.18586 -28.4071 -11.0688 0.0960736 53.8426 -0.124961 23.6342 23.667 -2.45591 -81.6467 -80.1025 -52.5631 4.77083e-015 -1.59028e-015 -0 3.18055e-015 -7.95139e-015 3.18055e-015 1.59028e-015 1.59028e-015 3.18055e-015 11.629 -43.6737 34.2889 -0.037109 50.4453 0.0808349 0.372899 -12.1651 -6.80055 3.4073 -3.42912 0.101513 1.78906e-015 7.95139e-016 -0 -7.95139e-016 3.18055e-015 -7.95139e-016 1.59028e-015 0 -7.95139e-016 3.97569e-015 -3.18055e-015 -0 
314.56 88.7009 -131.922 8.51136 9.72449 -33.6073 1.59028e-015 -1.59028e-015 -1.27222e-014 -10.289 23.3303 13.7147 -4.32394 1.39008 -5.34463 -62.1492 11.812 -1.5574 -4.34994e-005 1.26042e-005 -52.3582 11.8486 -3.80695 -3.36299 -5.78814e-016 20 1.69234e-015 83 3.18055e-015 -85 1.59028e-015 0 -0 -7.44058 -3.276 13.2094 66.9311 17.9663 2.75723 5.91008e-005 9.71208e-005 67.2588 -9.84635 8.15793 6.15562 -1.59028e-015 20 -0 -83 3.18055e-015 85 -3.97569e-016 9.54166e-015 3.97569e-016 -1.59028e-015 -9.54166e-015 -0 -5.85614 -19.9382 18.7986 -9.1316 -12.3289 4.69667 -1.59028e-015 -9.54166e-015 -0 -2.72135 8.02742 3.99617 6.89799 -30.3869 -11.4984 0.155235 57.8539 -0.136301 22.2574 22.0671 -3.36036 -41.4304 -64.2224 -17.1725 -4.77083e-015 -1.59028e-015 -3.18055e-015 -3.18055e-015 -1.59028e-015 3.18055e-015 3.18055e-015 1.59028e-015 -6.36111e-015 11.7089 -43.1575 32.7395 -0.0284976 51.2859 0.118012 0.44705 -14.3924 -5.61118 3.51718 -2.05837 0.0198314 -1.98785e-016 1.59028e-015 -3.18055e-015 3.97569e-016 -3.18055e-015 -1.59028e-015 -2.20695e-031 1.59028e-014 7.95139e-016 1.59028e-015 -1.59028e-015 -1.27222e-014 
313.042 88.3856 -131.898 8.26288 9.43296 -33.0865 -7.95139e-016 -1.59028e-015 -3.18055e-015 -10.3482 24.12 12.8306 -4.32268 1.21848 -5.76639 -61.1708 11.8635 -2.95522 -4.35273e-005 1.26403e-005 -52.2314 11.648 -3.334 -3.52549 1.15763e-015 20 -3.38468e-015 83 -3.18055e-015 -85 0 3.18055e-015 -0 -6.92483 -2.88128 13.1406 67.2624 17.4067 2.53881 6.30382e-005 0.000106026 65.0381 -9.78579 8.39379 5.85496 -1.59028e-015 20 -0 -83 9.54166e-015 85 7.95139e-016 0 1.59028e-015 -1.59028e-015 0 3.18055e-015 -5.34661 -20.1093 19.2761 -8.76868 -12.6807 4.70374 -1.59028e-015 0 3.18055e-015 -2.75258 8.28034 3.67007 5.28796 -32.4707 -11.7075 0.214377 61.2364 -0.149405 20.067 20.1165 -4.06927 -32.0385 -49.7587 -7.82253 3.18055e-015 3.18055e-015 -0 -1.85384e-030 1.11319e-014 9.54166e-015 4.77083e-015 -3.18055e-015 -6.36111e-015 12.1539 -42.7579 31.7261 -0.0194196 52.0975 0.157977 -0.0608056 -15.306 -5.28034 3.05493 -2.05669 0.0134164 3.97569e-016 -7.95139e-016 -0 -2.64834e-031 9.54166e-015 1.59028e-015 -1.59028e-015 3.18055e-015 -7.95139e-016 -7.95139e-016 -1.59028e-015 -3.18055e-015 
